<?xml version="1.0" encoding="utf-8"?>
<!-- Generator: Adobe Illustrator 25.2.0, SVG Export Plug-In . SVG Version: 6.00 Build 0)  -->
<svg version="1.1" xmlns="http://www.w3.org/2000/svg" xmlns:xlink="http://www.w3.org/1999/xlink" x="0px" y="0px"
	 viewBox="0 0 7986.5 2798.6" style="enable-background:new 0 0 7986.5 2798.6;" xml:space="preserve">
<style type="text/css">
	.st0{filter:url(#Adobe_OpacityMaskFilter);}
	.st1{fill:#FFFFFF;}
	.st2{mask:url(#SVGID_1_);}
	.st3{fill:#FFDFEF;}
	.st4{fill:#292929;}
	.st5{fill:none;}
	.st6{font-family:'RomanyW07-Bold';}
	.st7{font-size:1063px;}
</style>
<g id="Layer_2">
	<desc>Created with Snap</desc>
	<defs>
		<filter id="Adobe_OpacityMaskFilter" filterUnits="userSpaceOnUse" x="44" y="-139.7" width="7986.5" height="2798.6">
			<feColorMatrix  type="matrix" values="1 0 0 0 0  0 1 0 0 0  0 0 1 0 0  0 0 0 1 0"/>
		</filter>
	</defs>
	<mask maskUnits="userSpaceOnUse" x="44" y="-139.7" width="7986.5" height="2798.6" id="SVGID_1_">
		<g class="st0">
			<g>
				<g>
					<path class="st1" d="M5077,1548.8l-57.5,229.7h229.9l-57.5-229.9l115,229.9c0,0,5.4,88.6-102.4,115c-132.1,0-132.1,0-132.1,0
						s-109-11-110.4-115C4999.1,1705.2,5077,1548.8,5077,1548.8z"/>
					<path class="st1" d="M5222.4,1483.9l199.5-49.9c0,0-2.4-60.7,1.9-72.1c4.3-11.4,30.3-64.1,83.9-35.4
						c16.3,13.8,26.3,19.1,27.7,37.2c1.4,18.1,1.4,70.3,1.4,70.3l229.9,57.5c0,0,3-57.6,57.5-57.5c54.5,0.1,57.5,51.5,57.5,51.5
						v63.5h-344.9v459.8h129.8c0,0,97.1,14.2,100.1,115c-112.5,0-574.8,0-574.8,0s-2.3-82.7,81.4-110c8.1-2.2,20.4-8.8,55.5-5
						c41.3,0,93,0,93,0V1549l-344.9,0.3l0.5-65.6c0,0,6.8-42.2,42.1-47.6c35.4-5.5,54.9,14.4,54.9,14.4s22.2,25.1,17.3,41.1"/>
					<path class="st1" d="M5766.7,1548.5l-57.5,229.9h229.9l-57.5-229.4l115,229.4c0,0,0,101-106.4,115c-133.5,0-133.5,0-133.5,0
						s-100.9-10.9-105-115C5693.9,1694.5,5766.7,1548.5,5766.7,1548.5z"/>
				</g>
				<circle class="st1" cx="6573.8" cy="512.4" r="344.9"/>
				<path class="st1" d="M7723.3,1661.9c-6.5-113.4-115-115-115-115h-229.9c0,0,0,0,0-229.9c-29.1-404.9-459.8-344.9-459.8-344.9
					L6688.7,1432l-76.7-306.6l76.7-153.2h-229.9l76.7,153.2l-76.7,306.6l-229.9-459.8l-932.6,0.7c0,0-99.7,9.6-102,114.2
					c-2.3,104.7,115,115,115,115h804.7v919.7h689.7c0,0,0,11.1,0,115c12,109.9,115,115,115,115s572.2,0,689.7,0
					c117.5,0,115-115,115-115S7729.8,1775.3,7723.3,1661.9z M7033.6,1363.3c0,0,15.6-47.6,57.5-46.3c41.9,1.3,57.5,41.7,57.5,41.7
					V1547h-115V1363.3z M7608.4,2236.7h-689.7v-574.8h229.9v344.9c0,0,8.2,117.1,115,115c106.7-2.2,115-115,115-115v-344.9h229.9
					V2236.7z"/>
			</g>
		</g>
	</mask>
	<g class="st2">
		<rect x="44" y="-139.7" class="st3" width="7986.5" height="2798.6"/>
		<g transform="matrix(114.9575,0,0,114.9575,4513.6572,-4845.5684)">
			<g>
				<circle class="st4" cx="17.9" cy="46.6" r="3"/>
				<path class="st4" d="M26.9,55.6h-2v-2c0-1.7-1.3-3-3-3h-1l-2,4l-0.7-2.7l0.7-1.3h-2l0.7,1.3l-0.7,2.7l-2-4h-8c-0.6,0-1,0.4-1,1
					s0.4,1,1,1h7v8h6v1c0,0.6,0.4,1,1,1h6c0.6,0,1-0.4,1-1v-5C27.9,56.1,27.5,55.6,26.9,55.6z M21.9,54.1c0-0.3,0.2-0.5,0.5-0.5
					c0.3,0,0.5,0.2,0.5,0.5v1.5h-1V54.1z M26.9,61.6h-6v-5h2v3c0,0.6,0.4,1,1,1s1-0.4,1-1v-3h2V61.6z"/>
				<path class="st4" d="M12.4,57.6h-2l0.5-2l-1,2c0,0.6,0.4,1,1,1h1c0.6,0,1-0.4,1-1l-1-2L12.4,57.6z"/>
				<path class="st4" d="M11.9,55.1c0-0.3-0.2-0.5-0.5-0.5s-0.5,0.2-0.5,0.5l-2-0.5v-0.5c0-0.3-0.2-0.5-0.5-0.5s-0.5,0.2-0.5,0.5
					v0.5l-2,0.5c0-0.3-0.2-0.5-0.5-0.5s-0.5,0.2-0.5,0.5v0.5h1h2v4h-1c-0.6,0-1,0.4-1,1h5c0-0.6-0.4-1-1-1h-1v-4h2h1V55.1z"/>
				<path class="st4" d="M4.4,57.6l0.5-2l-1,2c0,0.6,0.4,1,1,1h1c0.6,0,1-0.4,1-1l-1-2l0.5,2H4.4z"/>
			</g>
			<desc>Created with Snap</desc>
		</g>
		<g>
			<g transform="matrix(1.024,0,0,-1.024,0,0)">
				<path class="st4" d="M1158-1473.1c8.7,0,15.3-4,20-12c5.3-8,8-19,8-33c0-26-6.3-46.7-19-62c-37.3-44.7-73.7-76-109-94
					c-34.7-18-76.7-27-126-27c-34.7,0-66.7,4.3-96,13c-29.3,8.7-65,21.7-107,39c-38,16.7-74.7,30.3-110,41c-34-62-85-93-153-93
					c-37.3,0-67.3,8.3-90,25c-22,17.3-33,39.3-33,66c0,32.7,15.7,59.7,47,81c31.3,22,73,33,125,33h13l18,291c4,66.7,16,121.7,36,165
					c20,43.3,47.7,80.3,83,111c30.7,26.7,65.7,46.7,105,60c39.3,14,81,21,125,21c72,0,127.3-18.7,166-56c38.7-37.3,58-86,58-146
					c0-40.7-7.3-73.7-22-99c-14.7-24.7-35-37-61-37c-18.7,0-33.3,4.3-44,13c-10.7,9.3-16,22.3-16,39c0,6,1.3,17,4,33
					c4,18.7,6,35.3,6,50c0,28-8.3,50-25,66c-16,16.7-40.7,25-74,25c-58.7,0-104-19.3-136-58c-32-38-52.3-98-61-180l-23-227
					c-3.3-32-7.7-59.7-13-83c42.7-7.3,96-19,160-35c37.3-9.3,66-16,86-20s37.7-6,53-6c38.7,0,71.7,6.3,99,19
					c28,13.3,54.3,34.3,79,63C1139-1477.7,1148-1473.1,1158-1473.1z M1228-1701.1c-41.3,0-74.3,15-99,45c-24.7,30-37,69.3-37,118
					c0,53.3,12.3,103.7,37,151c24.7,48,57.3,86.3,98,115c41.3,29.3,85,44,131,44c14.7,0,24.3-3,29-9c5.3-5.3,9.7-15.3,13-30
					c14,2.7,28.7,4,44,4c32.7,0,49-11.7,49-35c0-14-5-47.3-15-100c-15.3-76.7-23-130-23-160c0-10,2.3-18,7-24c5.3-6,12-9,20-9
					c12.7,0,28,8,46,24c18,16.7,42.3,43.3,73,80c8,9.3,17,14,27,14c8.7,0,15.3-4,20-12c5.3-8,8-19,8-33c0-26.7-6.3-47.3-19-62
					c-27.3-34-56.3-62.7-87-86c-30.7-23.3-60.3-35-89-35c-22,0-42.3,7.3-61,22c-18,15.3-31.7,36-41,62
					C1324.3-1673.1,1280.7-1701.1,1228-1701.1z M1264-1600.1c14.7,0,28.7,8.7,42,26c13.3,17.3,23,40.3,29,69l37,184
					c-28-0.7-54-11.3-78-32c-23.3-20-42-46.7-56-80c-14-33.3-21-68.7-21-106c0-20.7,4-36,12-46
					C1237.7-1595.1,1249.3-1600.1,1264-1600.1z M2321-1392.1c2,0.7,5.3,1,10,1c10,0,17.7-3.3,23-10c5.3-6.7,8-15.7,8-27
					c0-20.7-4-37-12-49c-8-11.3-20-19.7-36-25c-30.7-10-63.3-15-98-15c-29.3,0-57,4-83,12c-19.3-31.3-40.7-63.7-64-97
					c-26.7-38-49.7-64-69-78c-18.7-14-40-21-64-21c-26.7,0-47,10.3-61,31c-13.3,20.7-21.7,54.7-25,102l-5,73
					c-20.7-56-39.3-98.7-56-128c-16-29.3-32.3-49.7-49-61c-16-11.3-35-17-57-17c-27.3,0-49,10.7-65,32c-15.3,21.3-25,55-29,101
					c-8,93.3-12,175-12,245v35c0.7,22,6.7,37.3,18,46c11.3,8.7,28.3,13,51,13c17.3,0,30-4,38-12c8.7-7.3,13-20,13-38
					c0-76.7,4.7-176.3,14-299c45.3,95.3,87,194.7,125,298c7.3,20,16,33.3,26,40c10.7,7.3,23.3,11,38,11c18,0,30.3-3.7,37-11
					c7.3-7.3,11-20.3,11-39c0-76.7,4.7-176.3,14-299c40,59.3,70,106.7,90,142c-10,19.3-15,42.3-15,69c0,22.7,5,44.7,15,66
					c10,21.3,23.7,38.7,41,52c17.3,13.3,37,20,59,20c19.3,0,35-7,47-21c12-13.3,18-33,18-59c0-30-8-64.3-24-103
					c25.3,1.3,59,6.3,101,15L2321-1392.1z M3114-867.1c18.7-2.7,31.3-8.3,38-17c7.3-8.7,11-20,11-34c0-46-24.7-67.3-74-64l-35,3
					c-39.3,3.3-78.7,6-118,8c-38.7,2-79.3,3-122,3h-45c-8-98.7-16.3-188.7-25-270l172,3c24.7,0,41-4.3,49-13c8.7-8.7,13-20.3,13-35
					c0-22.7-6.7-40.7-20-54c-13.3-12.7-32.3-19-57-19h-171l-6-43c-14-110-44-188.3-90-235c-45.3-46.7-108-70-188-70
					c-45.3,0-87,9.7-125,29c-38,20-66,44-84,72c-7.3,11.3-11,25-11,41s3.7,30,11,42c8,12,17.7,18,29,18c8,0,15.7-2.7,23-8
					c8-5.3,18-15.7,30-31c32-42,71.7-63,119-63c38,0,69.7,15.3,95,46c26,31.3,42.7,80.3,50,147l6,55h-48c-15.3,0-28.7,4.3-40,13
					c-10.7,8.7-16,21-16,37c0,20.7,5.3,36.3,16,47c10.7,11.3,26.3,17,47,17c18.7,0,37,0.3,55,1c8,73.3,16.7,162.3,26,267
					c-72-6.7-122.7-18.3-152-35c-29.3-16.7-44-41.3-44-74c0-22.7,6.7-44.3,20-65c4-6,6-12,6-18c0-12-6.7-22.7-20-32
					c-13.3-8.7-28.3-13-45-13c-18,0-33.3,5.3-46,16c-8,6.7-15.7,20.3-23,41c-7.3,20.7-11,43.7-11,69c0,82.7,42.3,142.7,127,180
					c85.3,37.3,209.7,56,373,56C2927.3-849.1,3027.3-855.1,3114-867.1z M3118-1164.1c-28,0-49,6.3-63,19c-14,13.3-21,31.7-21,55
					c0,23.3,9,42.7,27,58c18.7,16,41.7,24,69,24c24.7,0,44.7-6,60-18s23-29,23-51c0-26.7-8.7-48-26-64
					C3169.7-1156.4,3146.7-1164.1,3118-1164.1z M3110-1701.1c-43.3,0-75,15.3-95,46c-19.3,30.7-29,71.3-29,122c0,30,3.7,68.3,11,115
					c8,47.3,18,91.3,30,132c6,21.3,14,36,24,44s26,12,48,12c34,0,51-11.3,51-34c0-16.7-6.3-55.3-19-116c-16-73.3-24-123-24-149
					c0-20,2.7-35.3,8-46c5.3-10.7,14.3-16,27-16c12,0,27,8.3,45,25c18,16.7,42,43,72,79c8,9.3,17,14,27,14c8.7,0,15.3-4,20-12
					c5.3-8,8-19,8-33c0-26.7-6.3-47.3-19-62C3229-1660.7,3167.3-1701.1,3110-1701.1z M3679-1473.1c8.7,0,15.3-4,20-12
					c5.3-8,8-19,8-33c0-26.7-6.3-47.3-19-62c-24.7-30-59.7-57.7-105-83c-44.7-25.3-92.7-38-144-38c-70,0-124.3,19-163,57
					s-58,90-58,156c0,46,9.7,88.7,29,128c19.3,40,46,71.7,80,95c34.7,23.3,73.7,35,117,35c38.7,0,69.7-11.7,93-35
					c23.3-22.7,35-53.7,35-93c0-46-16.7-85.7-50-119c-32.7-32.7-88.3-58.7-167-78c16.7-30.7,48.3-46,95-46c30,0,64,10.3,102,31
					c38.7,21.3,72,49,100,83C3660-1477.7,3669-1473.1,3679-1473.1z M3427-1328.1c-24.7,0-45.7-14.3-63-43c-16.7-28.7-25-63.3-25-104
					v-2c39.3,9.3,70.3,23.3,93,42c22.7,18.7,34,40.3,34,65c0,12.7-3.7,22.7-11,30C3448.3-1332.1,3439-1328.1,3427-1328.1z
					 M4005-1473.1c8.7,0,15.3-4,20-12c5.3-8,8-19,8-33c0-26.7-6.3-47.3-19-62c-28.7-35.3-60-64.3-94-87c-33.3-22.7-71.3-34-114-34
					c-58.7,0-102.3,26.7-131,80c-28,53.3-42,122.3-42,207c0,81.3,10.3,174,31,278c21.3,104,52.3,193.3,93,268
					c41.3,74.7,90.3,112,147,112c32,0,57-15,75-45c18.7-29.3,28-71.7,28-127c0-79.3-22-171.3-66-276c-44-104.7-103.7-208.3-179-311
					c4.7-27.3,12.3-47,23-59c10.7-11.3,24.7-17,42-17c27.3,0,51.3,7.7,72,23c20.7,16,47,43,79,81
					C3986-1477.7,3995-1473.1,4005-1473.1z M3882-855.1c-15.3,0-32.7-27.7-52-83s-36.3-124-51-206s-22.7-160.7-24-236
					c47.3,78,85,156,113,234c28,78.7,42,150.3,42,215C3910-880.4,3900.7-855.1,3882-855.1z M4520-1473.1c8.7,0,15.3-4,20-12
					c5.3-8,8-19,8-33c0-26.7-6.3-47.3-19-62c-27.3-33.3-57.3-62-90-86c-32.7-23.3-65-35-97-35c-50.7,0-89.3,29.7-116,89
					c-28-35.3-52.7-59-74-71c-20.7-12-45-18-73-18c-40.7,0-74.3,15-101,45c-26,30.7-39,70.3-39,119c0,53.3,11.3,102.7,34,148
					c22.7,46,53.7,83.3,93,112c40,29.3,84.7,46.7,134,52c12.7,129.3,36.7,239.7,72,331c36,92,83,138,141,138c28.7,0,52.3-13,71-39
					c19.3-26,29-65.3,29-118c0-74.7-18.3-162-55-262s-85.7-202.7-147-308c2.7-38.7,8.3-66.3,17-83c9.3-16.7,21-25,35-25
					c18,0,36.3,8,55,24c18.7,16,43.7,42.7,75,80C4501-1477.7,4510-1473.1,4520-1473.1z M4402-854.1c-12.7,0-25.3-22.7-38-68
					c-12.7-44.7-23.7-103.3-33-176c-8.7-72.7-15-148.7-19-228c74.7,162.7,112,293.3,112,392c0,25.3-2.3,45-7,59
					C4413-861.1,4408-854.1,4402-854.1z M4114-1600.1c12.7,0,25.3,5,38,15c12.7,10.7,28.7,30,48,58c-6.7,36-10,76.3-10,121
					c0,16,0.7,42,2,78c-36.7-11.3-67.3-36-92-74c-24-37.3-36-79-36-125C4064-1575.7,4080.7-1600.1,4114-1600.1z"/>
			</g>
		</g>
	</g>
	<rect x="444.4" y="1104.1" class="st5" width="4194.3" height="883.7"/>
	<text transform="matrix(1 0 0 1 444.4066 1836.4227)" class="st4 st6 st7">LawField</text>
</g>
<g id="Layer_1">
</g>
</svg>
